<?xml version="1.0" encoding="UTF-8" standalone="no"?>
<!-- Created with Inkscape (http://www.inkscape.org/) -->

<svg
   width="210mm"
   height="297mm"
   viewBox="0 0 210 297"
   version="1.1"
   id="svg5"
   inkscape:version="1.1.2 (0a00cf5339, 2022-02-04)"
   sodipodi:docname="wheatear_silhouette.svg"
   xmlns:inkscape="http://www.inkscape.org/namespaces/inkscape"
   xmlns:sodipodi="http://sodipodi.sourceforge.net/DTD/sodipodi-0.dtd"
   xmlns="http://www.w3.org/2000/svg"
   xmlns:svg="http://www.w3.org/2000/svg">
  <sodipodi:namedview
     id="namedview7"
     pagecolor="#ffffff"
     bordercolor="#666666"
     borderopacity="1.0"
     inkscape:pageshadow="2"
     inkscape:pageopacity="0.0"
     inkscape:pagecheckerboard="0"
     inkscape:document-units="mm"
     showgrid="false"
     inkscape:zoom="0.98520767"
     inkscape:cx="605.45611"
     inkscape:cy="335.46227"
     inkscape:window-width="1814"
     inkscape:window-height="1134"
     inkscape:window-x="26"
     inkscape:window-y="23"
     inkscape:window-maximized="0"
     inkscape:current-layer="layer1" />
  <defs
     id="defs2">
    <filter
       style="color-interpolation-filters:sRGB;"
       inkscape:label="Drawing"
       id="filter7624"
       x="-0.014337821"
       y="-0.023896368"
       width="1.0286756"
       height="1.0477927">
      <feGaussianBlur
         in="SourceGraphic"
         stdDeviation="0.25"
         result="blur1"
         id="feGaussianBlur7570" />
      <feConvolveMatrix
         in="blur1"
         targetX="1"
         targetY="1"
         order="3 3"
         kernelMatrix="0 250 0 250 -1015 250 0 250 0 "
         result="convolve1"
         id="feConvolveMatrix7572" />
      <feComposite
         in="convolve1"
         in2="convolve1"
         k1="1"
         k2="1"
         k4="2.77556e-18"
         operator="arithmetic"
         result="composite1"
         id="feComposite7574" />
      <feColorMatrix
         in="composite1"
         values="0 0 0 0 0 0 0 0 0 0 0 0 0 0 0 -0.2125 -0.7154 -0.0721 1 0 "
         result="color1"
         id="feColorMatrix7576" />
      <feGaussianBlur
         stdDeviation="0.01"
         result="blur2"
         id="feGaussianBlur7578" />
      <feColorMatrix
         values="1 0 0 0 0 0 1 0 0 0 0 0 1 0 0 0 0 0 4.58103 -1.4 "
         result="color2"
         id="feColorMatrix7580" />
      <feFlood
         flood-color="rgb(255,255,255)"
         result="flood1"
         id="feFlood7582" />
      <feBlend
         in2="color2"
         mode="multiply"
         result="blend1"
         id="feBlend7584" />
      <feComponentTransfer
         in="blend1"
         result="component1"
         id="feComponentTransfer7592">
        <feFuncR
           type="discrete"
           tableValues="0 1 1 1"
           id="feFuncR7586" />
        <feFuncG
           type="discrete"
           tableValues="0 1 1 1"
           id="feFuncG7588" />
        <feFuncB
           type="discrete"
           tableValues="0 1 1 1"
           id="feFuncB7590" />
      </feComponentTransfer>
      <feGaussianBlur
         stdDeviation="0.72"
         result="blur3"
         id="feGaussianBlur7594" />
      <feColorMatrix
         in="blur3"
         values="0 0 0 0 0 0 0 0 0 0 0 0 0 0 0 -0.2125 -0.7154 -0.0721 1 0 "
         result="color3"
         id="feColorMatrix7596" />
      <feColorMatrix
         values="1 0 0 0 0 0 1 0 0 0 0 0 1 0 0 0 0 0 7 -2.31044 "
         result="color4"
         id="feColorMatrix7598" />
      <feFlood
         flood-color="rgb(35,35,35)"
         result="flood2"
         id="feFlood7600" />
      <feComposite
         in="flood2"
         in2="color4"
         operator="in"
         result="composite2"
         id="feComposite7602" />
      <feComposite
         in="composite2"
         in2="composite2"
         operator="arithmetic"
         k2="1"
         result="composite3"
         id="feComposite7604" />
      <feOffset
         dx="0"
         dy="0"
         result="offset1"
         id="feOffset7606" />
      <feFlood
         in="color4"
         flood-color="rgb(208,21,4)"
         result="flood3"
         id="feFlood7608" />
      <feComposite
         in="flood3"
         in2="color4"
         operator="out"
         result="composite4"
         id="feComposite7610" />
      <feComposite
         in="composite4"
         in2="composite4"
         operator="arithmetic"
         k2="0.901961"
         result="composite5"
         id="feComposite7612" />
      <feMerge
         result="merge1"
         id="feMerge7618">
        <feMergeNode
           in="composite5"
           id="feMergeNode7614" />
        <feMergeNode
           in="offset1"
           id="feMergeNode7616" />
      </feMerge>
      <feColorMatrix
         values="1 0 0 0 0 0 1 0 0 0 0 0 1 0 0 0 0 0 1.3 0 "
         result="color5"
         flood-opacity="0.56"
         id="feColorMatrix7620" />
      <feComposite
         in="color5"
         in2="SourceGraphic"
         operator="in"
         result="composite8"
         id="feComposite7622" />
    </filter>
  </defs>
  <g
     inkscape:label="Layer 1"
     inkscape:groupmode="layer"
     id="layer1">
    <circle
       style="fill:#d41000;fill-opacity:0.913722;stroke:none;stroke-width:0.228667"
       id="path8776"
       cx="109.36327"
       cy="48.941414"
       r="37.947147"
       inkscape:export-filename="/home/fritjof/my-projects/sampledb/resources/wheatear_silhouette.png"
       inkscape:export-xdpi="100.40279"
       inkscape:export-ydpi="100.40279" />
    <path
       id="path7930"
       style="opacity:1;fill:#000000;stroke-width:0.264583"
       d="m 115.38504,23.671448 c 0.23523,-0.0121 0.50854,0.0588 0.94052,0.20619 0.55123,0.18815 1.14287,0.31472 1.31464,0.28112 0.17178,-0.0335 1.18381,0.12091 2.24896,0.34313 1.06516,0.22221 2.43542,0.40399 3.0453,0.40411 0.60987,1.2e-4 1.19021,0.13233 1.28984,0.29352 0.10549,0.17067 0.582,0.23697 1.1405,0.15917 0.52743,-0.0735 1.55391,-0.0535 2.28151,0.0444 1.23241,0.16574 1.28271,0.20033 0.73071,0.50953 -0.67989,0.38084 -5.13804,1.36446 -6.21254,1.37046 -0.56209,0.003 -0.6825,-0.0916 -0.55087,-0.4346 0.14776,-0.38507 0.0123,-0.41734 -1.10588,-0.26407 -0.70105,0.0961 -1.63248,0.35295 -2.06964,0.57103 -0.43716,0.21808 -1.19086,0.39636 -1.67483,0.39636 -0.71937,-1e-5 -1.137,0.26555 -2.28927,1.45521 -1.21639,1.25584 -1.54564,1.45572 -2.40399,1.45572 -0.54704,0 -1.22381,-0.12301 -1.50378,-0.27285 -0.91837,-0.4915 -1.34967,-1.77741 -1.07746,-3.21273 0.078,-0.41139 3.11962,-2.07067 3.79564,-2.07067 0.40474,0 0.73587,-0.11673 0.73587,-0.2589 0,-0.14216 0.29337,-0.45049 0.65164,-0.68523 0.28075,-0.18398 0.47791,-0.27888 0.71313,-0.29094 z m 8.03827,3.72846 c 0.0353,-0.002 0.0647,0.007 0.0858,0.0279 0.0842,0.0842 -0.0221,0.26357 -0.23616,0.39894 -0.56011,0.35423 -0.63283,0.31108 -0.25114,-0.14882 0.13805,-0.16635 0.29565,-0.27148 0.40152,-0.27802 z m -13.40951,7.18302 c 0.271,0.009 0.56689,0.17139 0.56689,0.40566 0,0.12995 -0.11907,0.23616 -0.26459,0.23616 -0.14552,0 -0.26458,-0.12598 -0.26458,-0.28008 0,-0.1541 -0.1374,-0.19531 -0.30541,-0.0915 -0.18501,0.11432 -0.2335,0.0731 -0.1235,-0.10491 0.0752,-0.12169 0.22859,-0.17101 0.39119,-0.16536 z m 0.0749,1.96887 1.14566,0.52142 c 1.10845,0.50496 1.13845,0.55096 0.94103,1.42627 -0.11219,0.49746 -0.36785,1.13816 -0.56844,1.42368 -0.69209,0.98512 -3.23549,2.9661 -4.35891,3.39515 -0.75704,0.28911 -1.08047,0.55145 -0.98546,0.79891 0.0777,0.20256 -0.0126,0.36794 -0.20103,0.36794 -0.58814,0 -2.10197,1.1739 -1.96939,1.52704 0.17709,0.47169 -0.82431,1.54638 -1.81074,1.94355 -0.45592,0.18356 -1.24561,0.58567 -1.75493,0.894 -0.50933,0.30834 -1.470665,0.7643 -2.136295,1.01286 -1.30963,0.48905 -3.53639,2.00281 -3.29748,2.24172 0.0808,0.0808 -0.11272,0.42349 -0.43046,0.76171 -0.31774,0.33822 -0.52009,0.61495 -0.44959,0.61495 0.24799,0 -2.29574,2.56579 -3.23442,3.26233 -0.52227,0.38756 -1.35572,0.84358 -1.85209,1.01338 -0.49637,0.16981 -1.31746,0.58695 -1.82417,0.92708 -1.09006,0.73162 -1.06299,0.72574 -1.06299,0.22065 0,-0.2186 0.38808,-0.78415 0.86196,-1.25677 1.65905,-1.65467 2.09859,-2.27514 2.15129,-3.03599 0.0617,-0.89126 2.18352,-3.82934 4.51084,-6.24613 0.86397,-0.89718 1.96872,-2.09306 2.45515,-2.65772 0.96213,-1.11685 2.80223,-2.54558 3.27887,-2.54558 0.16395,0 0.730815,-0.36091 1.259345,-0.80253 1.51688,-1.26774 1.59386,-1.32183 1.81229,-1.27383 0.48065,0.10575 1.62872,-0.63562 3.06597,-1.98024 0.95691,-0.89523 2.08627,-1.64793 2.99516,-1.99574 z m 14.57999,3.05925 c 0.0956,0.0204 0.21767,0.46465 0.3514,1.34875 0.0941,0.62212 0.0306,1.5178 -0.14521,2.05052 -0.1717,0.52023 -0.33827,0.94568 -0.37001,0.94568 -0.0317,0 -0.0521,-1.0597 -0.0455,-2.35541 0.007,-1.34102 0.0864,-2.01574 0.20929,-1.98954 z m -13.68599,14.27613 c 0.11928,0.0109 0.12712,0.13857 0.12712,0.39222 0,0.45782 -0.3905,0.65821 -1.09915,0.56431 -0.0953,-0.0126 -0.2381,0.14565 -0.3173,0.35191 -0.0951,0.24792 -0.0142,0.3251 0.23926,0.2279 0.62706,-0.24062 0.43971,0.22254 -0.47645,1.1777 l -0.8599,0.89659 1.01596,-0.59324 c 0.55874,-0.32631 1.0776,-0.7536 1.1529,-0.94982 0.18482,-0.48166 0.60927,-0.45402 0.60927,0.0398 0,0.50796 0.13867,0.49972 0.77721,-0.047 0.28529,-0.24424 0.45837,-0.54189 0.38447,-0.66146 -0.17915,-0.28985 -0.0148,-0.27432 0.87179,0.0822 0.40966,0.16466 1.25539,0.27441 1.87947,0.24391 1.11666,-0.0546 1.13195,-0.0439 0.96996,0.69246 -0.0905,0.41151 -0.20753,0.88945 -0.25993,1.06195 -0.0524,0.1725 0.0352,0.35711 0.19482,0.41031 0.47039,0.15679 -0.57786,1.52498 -1.1684,1.52498 -0.28767,0 -0.83947,0.2451 -1.22629,0.54467 -0.38681,0.29957 -1.44746,1.01144 -2.35696,1.58181 -0.97707,0.61275 -1.66136,1.22886 -1.67276,1.50585 -0.0106,0.25784 -0.10832,1.09338 -0.21704,1.85674 l -0.19792,1.38802 2.88406,3.50677 c 3.15118,3.83181 4.99443,5.75099 5.53558,5.76399 0.19187,0.005 0.5846,0.18677 0.87281,0.40462 0.31226,0.23604 0.7979,0.33582 1.202,0.24702 0.7263,-0.15952 1.60412,0.55969 1.93941,1.58905 0.16975,0.52114 0.16617,0.52128 -0.22531,0.0155 -0.21863,-0.28247 -0.39739,-0.60174 -0.39739,-0.70952 0,-0.36717 -1.45469,-0.043 -1.53066,0.34107 -0.0416,0.21036 0.16676,0.66196 0.46302,1.00355 0.29627,0.3416 0.53847,0.88792 0.53847,1.21388 0,0.78518 0.62109,0.98665 1.87896,0.60978 0.89494,-0.26812 1.09967,-0.24565 1.56011,0.17105 0.29144,0.26375 0.52968,0.64764 0.52968,0.85318 0,0.25621 0.17058,0.31945 0.54209,0.20154 0.29802,-0.0946 0.6996,-0.0407 0.89245,0.11937 0.19286,0.16003 0.55413,0.21281 0.80305,0.11731 0.35933,-0.13789 0.37993,-0.21978 0.0997,-0.39739 -0.1941,-0.12304 -0.58186,-0.2259 -0.86144,-0.2279 -0.56826,-0.005 -1.47597,-0.72375 -1.47588,-1.16943 3e-5,-0.17539 0.58455,-0.28991 1.48053,-0.28991 0.81409,0 1.54013,-0.0975 1.61385,-0.21652 0.0737,-0.119 0.29478,-0.15488 0.49093,-0.0796 0.22879,0.0878 0.30415,6e-4 0.21032,-0.24391 -0.18808,-0.49013 0.59984,-0.8002 1.06092,-0.41755 0.19344,0.16052 0.40619,0.23724 0.47284,0.17054 0.0667,-0.0667 0.7808,0.20689 1.58698,0.60771 0.12462,0.062 0.19556,0.10384 0.29921,0.15761 -7.47411,5.243188 -14.18787,7.424775 -22.09977,7.350462 -13.066112,-0.122725 -20.492856,-5.421161 -24.130985,-8.252221 0.9718,-0.1414 1.87444,-0.39177 1.99677,-0.58084 0.0856,-0.1323 0.3087,-0.0562 0.49558,0.16898 0.29223,0.3521 0.24056,0.40928 -0.36794,0.40928 h -0.70745 l 0.70849,0.65681 c 0.83406,0.77298 1.28106,0.62066 1.08313,-0.36897 -0.13409,-0.6705 -0.0951,-0.70102 0.7705,-0.59997 0.50162,0.0586 1.08408,-0.0361 1.29398,-0.21032 0.2099,-0.17424 0.52366,-0.22896 0.69763,-0.12144 0.18143,0.11213 0.4692,-0.0129 0.67438,-0.29352 0.27761,-0.37965 0.42823,-0.41823 0.67386,-0.1726 0.17408,0.17408 0.53129,0.31626 0.79323,0.31626 0.26193,0 0.47594,0.0914 0.47594,0.20309 0,0.24581 2.21058,0.1983 2.62258,-0.0563 0.16627,-0.10277 0.3984,0.0835 0.53795,0.4315 0.20545,0.51226 0.24852,0.41173 0.26252,-0.61598 0.0119,-0.8716 -0.10151,-1.27386 -0.38964,-1.38442 -0.36205,-0.13893 -0.35964,-0.2267 0.0227,-0.81028 0.2359,-0.36003 0.35229,-0.77878 0.25839,-0.9307 -0.0939,-0.15192 -0.0317,-0.27646 0.13797,-0.27646 0.16966,0 0.23837,-0.18197 0.15296,-0.40463 -0.0854,-0.22266 -0.33916,-2.03836 -0.56378,-4.0349 -0.46133,-4.10069 -0.6855,-5.374 -0.85887,-4.87308 -0.088,0.25432 -0.21425,0.21961 -0.4811,-0.1323 -0.47028,-0.62025 -0.465,-1.09878 0.0227,-2.03398 0.31058,-0.59563 0.32871,-0.84623 0.0832,-1.14205 -0.25438,-0.30652 -0.14567,-0.52371 0.56793,-1.13275 0.78885,-0.67327 0.92541,-0.71015 1.28416,-0.3514 0.26467,0.26443 0.69061,0.35404 1.25108,0.26304 1.140975,-0.18516 4.906495,-2.04149 5.889045,-2.90319 0.24461,-0.21453 0.71283,-0.47174 1.04024,-0.57154 0.32742,-0.0998 0.59532,-0.30903 0.59532,-0.46509 0,-0.15604 0.17665,-0.41566 0.39222,-0.57722 0.21556,-0.16157 0.43126,-0.56357 0.47956,-0.89297 0.0483,-0.32939 0.22939,-0.73996 0.40204,-0.91261 0.24221,-0.24216 0.31368,-0.0256 0.31368,0.94827 0,1.06806 0.056,1.20696 0.36225,0.90072 0.19908,-0.19908 0.43835,-0.60271 0.53175,-0.89711 0.0934,-0.29438 0.58511,-0.73347 1.09296,-0.97565 0.44623,-0.21277 0.67705,-0.3184 0.79633,-0.30747 z m 7.95714,1.18132 c 0.0388,0 -0.22932,0.53579 -0.59532,1.19063 -0.43754,0.78286 -0.84385,1.19062 -1.18649,1.19062 -0.4303,0 -0.32668,-0.20747 0.5948,-1.19062 0.61377,-0.65484 1.14817,-1.19063 1.18701,-1.19063 z m -11.74657,2.94711 c -0.1581,0.008 -0.57233,0.4032 -1.21802,1.17564 -0.6206,0.74243 -0.91828,1.30743 -0.76843,1.45727 0.29273,0.29273 1.42896,-0.88177 1.87896,-1.942 0.19878,-0.46834 0.23046,-0.6969 0.10749,-0.69091 z m -15.580445,2.67012 c 1.26299,0.069 1.34159,0.56686 -0.46199,0.97048 -0.79101,0.17702 -1.47565,0.41696 -1.52135,0.53279 -0.10721,0.27158 -6.78671,4.10309 -7.78815,4.46742 -1.06397,0.38706 -1.32876,0.37503 -1.78232,-0.0785 -0.24993,-0.24992 -0.90084,-0.39688 -1.75804,-0.39688 -1.14033,0 -1.34714,-0.0732 -1.27434,-0.45113 0.0913,-0.47393 0.97537,-1.1479 4.08244,-3.11299 1.91565,-1.21157 2.52893,-1.36929 6.05596,-1.55856 0.7276,-0.039 1.99484,-0.16464 2.81585,-0.27906 0.65829,-0.0917 1.21095,-0.11652 1.63194,-0.0935 z m 10.566275,0.73277 c -0.14552,0 -0.41312,0.1786 -0.59428,0.39688 -0.18374,0.22139 -0.21219,0.39687 -0.0646,0.39687 0.14552,0 0.4126,-0.17859 0.59376,-0.39687 0.18374,-0.22138 0.2127,-0.39688 0.0651,-0.39688 z m -3.399265,0.46251 c -0.26982,-0.0134 -0.45356,0.0275 -0.56844,0.12247 -0.44952,0.37169 -0.41666,0.73794 0.0661,0.73794 0.21828,0 0.39688,0.11906 0.39688,0.26458 0,0.14552 -0.15823,0.26459 -0.35192,0.26459 -0.76188,0 -1.05235,1.21146 -0.86868,3.62458 0.37941,4.98472 0.77398,7.89965 1.12344,8.30285 0.47681,0.55007 0.4601,1.03715 -0.0351,1.03715 -0.21828,0 -0.39688,0.11906 -0.39688,0.26458 0,0.35436 0.45329,0.33743 0.67748,-0.0253 0.0986,-0.15954 0.52841,-0.23892 0.955499,-0.17622 0.545766,0.0801 0.848686,-0.0207 1.019566,-0.34003 0.31353,-0.58584 0.98333,-0.84129 1.21647,-0.46405 0.11,0.17802 0.0609,0.21922 -0.12403,0.1049 -0.168,-0.10384 -0.30541,-0.0755 -0.30541,0.0631 0,0.35145 0.77871,0.64609 1.7198,0.65009 l 0.79375,0.004 -0.7488,0.11059 c -0.53978,0.0796 -0.70576,0.22261 -0.59427,0.51315 0.0851,0.22171 0.22735,0.69284 0.31625,1.04696 0.20586,0.82018 1.05343,1.31205 1.5503,0.89969 0.45063,-0.37405 1.68641,-0.60581 2.19315,-0.41135 0.31613,0.12132 0.32502,0.22129 0.0481,0.55501 -0.28274,0.3407 -0.25345,0.42941 0.18139,0.54312 0.63888,0.16707 1.25428,1.06795 0.88522,1.29604 -0.14254,0.088 -0.25942,0.0443 -0.25942,-0.0971 0,-0.1609 -0.2723,-0.16973 -0.7276,-0.0233 -0.40018,0.12875 -1.07222,0.30361 -1.49345,0.38861 -0.57513,0.116 -0.69046,0.2299 -0.46302,0.45734 0.22744,0.22702 0.68174,0.22656 1.82417,-0.002 2.51934,-0.50416 5.35782,-0.70224 5.35782,-0.37414 0,0.16878 0.48411,0.27922 1.16272,0.26562 0.63938,-0.0128 1.29422,0.0581 1.4552,0.15761 0.161,0.0994 0.29249,0.0682 0.29249,-0.0698 0,-0.13791 0.44648,-0.33386 0.99219,-0.43512 0.5457,-0.10126 1.20055,-0.37092 1.45521,-0.59944 0.25466,-0.22851 0.46302,-0.34262 0.46302,-0.25322 0,0.0894 -0.32632,0.4654 -0.72502,0.83509 -0.64925,0.60199 -0.66996,0.6705 -0.19844,0.6625 0.28956,-0.005 0.82424,-0.17961 1.18804,-0.38758 0.36381,-0.20797 0.92935,-0.38257 1.25677,-0.38757 0.70531,-0.0111 0.79274,-0.43995 0.1323,-0.64957 -0.25477,-0.0809 -0.61026,-0.47609 -0.79014,-0.87799 -0.49811,-1.11293 -1.92053,-2.68672 -1.92133,-2.12596 -3.4e-4,0.25114 -0.23815,0.84645 -0.52865,1.32291 -0.46776,0.76726 -0.52837,0.79806 -0.52916,0.27079 -5.5e-4,-0.32742 -0.13432,-0.59531 -0.29766,-0.59531 -0.20914,0 -0.20246,-0.11366 0.0227,-0.38499 0.17587,-0.21191 0.2479,-0.50154 0.16019,-0.64338 -0.0876,-0.14184 -0.0383,-0.33286 0.10956,-0.42426 0.1479,-0.0914 0.26658,-0.3078 0.26458,-0.48111 -0.003,-0.21084 -0.0793,-0.19627 -0.23151,0.0439 -0.14646,0.23119 -0.43547,0.29308 -0.81183,0.17363 -0.4768,-0.15133 -0.55262,-0.31464 -0.4098,-0.88367 0.20744,-0.82664 0.20578,-0.80854 0.16588,-1.56734 -0.0172,-0.32742 -0.19329,-0.59531 -0.39119,-0.59531 -0.1979,0 -0.58485,-0.31143 -0.85989,-0.69247 -0.99895,-1.3839 -3.17339,-3.95602 -4.33669,-5.12992 -1.78876,-1.80504 -2.11814,-2.41973 -1.93528,-3.60856 0.0863,-0.561 0.25711,-1.14859 0.37982,-1.30587 0.27013,-0.34623 -2.38623,-0.21063 -3.60391,0.18397 -0.43656,0.14146 -1.74625,0.32903 -2.91042,0.41703 l -2.116665,0.1602 0.50436,-0.56844 c 0.277209,-0.31258 0.753465,-0.57602 1.058335,-0.58601 0.30487,-0.01 -0.0414,-0.17807 -0.768946,-0.37363 -0.459519,-0.12348 -0.815389,-0.19125 -1.085199,-0.20463 z m 10.742485,14.38361 c 0.31172,0 0.62343,0.0146 0.8599,0.0439 0.47294,0.0587 0.086,0.10645 -0.8599,0.10645 -0.94589,0 -1.33283,-0.0478 -0.85989,-0.10645 0.23647,-0.0294 0.54818,-0.0439 0.85989,-0.0439 z m 2.40348,0.004 c 0.0919,-0.004 0.19647,0.013 0.29197,0.0512 0.21107,0.0845 0.14855,0.14698 -0.15968,0.15968 -0.27887,0.0115 -0.43517,-0.0511 -0.34727,-0.13901 0.044,-0.044 0.12306,-0.068 0.21498,-0.0718 z m -10.8779,0.50281 c -0.14008,-0.01 -0.25683,0.0546 -0.25683,0.19999 0,0.11362 0.35719,0.34113 0.79375,0.50591 0.66524,0.2511 0.79375,0.23476 0.79375,-0.10232 0,-0.24516 -0.15158,-0.34401 -0.38809,-0.25321 -0.21362,0.082 -0.45918,0.0353 -0.54518,-0.10387 -0.094,-0.152 -0.2573,-0.23656 -0.3974,-0.2465 z m -10.355425,0.52659 c 0.30893,0.003 0.24282,0.11414 -0.22015,0.37103 -0.80732,0.44797 -1.05833,0.49107 -1.05833,0.18242 0,-0.27735 0.65076,-0.55945 1.27848,-0.55345 z m -3.93981,0.26045 c 0.1541,0 0.28008,0.11905 0.28008,0.26458 0,0.14552 -0.0526,0.26458 -0.11679,0.26458 -0.0642,0 -0.19018,-0.11906 -0.28008,-0.26458 -0.0899,-0.14553 -0.0373,-0.26458 0.11679,-0.26458 z m 22.887485,0.82578 c 0.17497,0.0119 0.12709,0.0743 -0.11783,0.23255 v 5.2e-4 c -0.21827,0.14102 -0.81358,0.24392 -1.32291,0.22892 l -0.92604,-0.0274 0.79375,-0.20205 c 0.43656,-0.11109 1.03187,-0.21393 1.32291,-0.22893 0.10885,-0.006 0.19179,-0.008 0.25012,-0.004 z m -16.010905,0.91726 c -0.39271,0.002 -0.79551,0.0374 -1.17409,0.11007 l -1.05678,0.20309 1.15703,0.03 c 0.95831,0.0252 1.10403,0.094 0.85008,0.39998 -0.25593,0.30841 -0.0618,0.37225 1.17564,0.38705 1.25879,0.015 1.46948,-0.05 1.39578,-0.43253 -0.0811,-0.42122 -1.16956,-0.7049 -2.34766,-0.69763 z m 16.387625,0.78807 c 0.21539,0.0248 0.3103,0.14765 0.18087,0.35708 -0.0699,0.11317 -0.5075,0.21676 -0.97204,0.22996 l -0.84439,0.0238 0.73019,-0.37879 c 0.35383,-0.18357 0.68997,-0.25685 0.90537,-0.23202 z m 15.29105,1.86655 c -0.0538,-1.4e-4 -0.11258,0.007 -0.17518,0.0238 -0.29104,0.0761 -0.52917,0.23067 -0.52917,0.34365 0,0.274 0.70005,0.53243 0.90021,0.33228 0.32352,-0.32352 0.18052,-0.69874 -0.19586,-0.6997 z"
       sodipodi:nodetypes="cccsssccscsssssssssscccccsscccsssssccccssscsssssssssscsccsssccsccsssscsscsccccccsssscccssssssccccscsssssssssscsscsssssscccscsssccscsssssssccsssssssccssccssssscssssccssssscsssccscssssscccccsssccccsssscsssscssscccsccssscsccccsscssssscsccssccsscsccscssssssscccscccscscsccsscccsssscccsscssssscccccccccccccccccccccccccccsscc"
       inkscape:export-filename="/home/fritjof/my-projects/sampledb/resources/wheatear_silhouette.png"
       inkscape:export-xdpi="100.40279"
       inkscape:export-ydpi="100.40279" />
    <ellipse
       style="fill:#000000;fill-opacity:0;stroke-width:0.264583"
       id="path7740"
       cx="72.402946"
       cy="104.89177"
       rx="50.524658"
       ry="44.689754" />
    <ellipse
       style="fill:#000000;fill-opacity:0;stroke-width:0.264583"
       id="path7766"
       cx="52.887249"
       cy="153.32533"
       rx="15.394324"
       ry="10.948048" />
    <ellipse
       style="fill:#000000;fill-opacity:0;stroke-width:0.264583"
       id="path7768"
       cx="48.832638"
       cy="43.729137"
       rx="55.032501"
       ry="44.06591" />
    <circle
       style="fill:#d40000;fill-opacity:0;stroke:none;stroke-width:0.264583"
       id="path8536"
       cx="108.56288"
       cy="137.6291"
       r="42.73811" />
  </g>
</svg>
